<svg xmlns="http://www.w3.org/2000/svg" xmlns:xlink="http://www.w3.org/1999/xlink" version="1.1" x="0px" y="0px" viewBox="0 0 5 6.25" style="enable-background:new 0 0 5 5;" xml:space="preserve"><path d="M3.57,2.06c0,0-0.07,0.03-0.1,0.15c0,0-0.72-0.14-1.25-0.03l0.02-0.73c0,0,0.06-0.35-0.18-0.42  c0.25-0.24,0.01-0.53,0.01-0.53L1.86,1C1.85,1,1.83,1,1.82,1L1.64,0.57c0,0-0.18,0.23,0,0.42c-0.32,0-0.5,0.02-0.5,0.02  s-0.41,0.27,0,0.34C1.55,1.43,1.48,1.5,1.46,1.57c0,0-0.48,1.18,0.16,1.7l0.1,0.1c0,0,0.07,0.36,0.23,0.37c0.02,0,0.03,0,0.06,0  v0.63L1.85,4.51h0.33l0.04-0.77c0.07,0,0.14,0,0.21,0v0.63L2.28,4.51h0.33l0.04-0.77c0.05,0,0.08,0,0.08,0S2.86,3.67,2.86,3.6  c0.01,0.06,0.07,0.26,0.28,0.25l0.14,0.19L3.22,4.4L3.07,4.51h0.3l0.17-0.5L3.48,3.82c0.02,0,0.04-0.01,0.06-0.01l0.17,0.23  L3.64,4.4L3.5,4.51h0.3l0.17-0.5L3.85,3.52c0.03-0.21,0.08-0.43,0.08-0.43S4.1,2.58,3.74,2.28c0,0-0.03-0.09,0.18,0  c0.21,0.09,0.29,0.28,0.29,0.28S4.39,1.63,3.57,2.06z"/><text x="0" y="20" fill="#000000" font-size="5px" font-weight="bold" font-family="'Helvetica Neue', Helvetica, Arial-Unicode, Arial, Sans-serif">Created by Marco Loschi</text><text x="0" y="25" fill="#000000" font-size="5px" font-weight="bold" font-family="'Helvetica Neue', Helvetica, Arial-Unicode, Arial, Sans-serif">from the Noun Project</text></svg>